<svg height="512" viewBox="0 0 512 512" width="512" xmlns="http://www.w3.org/2000/svg"><g id="Filled_outline" data-name="Filled outline"><rect fill="#3fb5c4" height="352" rx="24" width="288" x="24" y="56"/><rect fill="#5ac6d4" height="352" rx="24" width="288" x="64" y="96"/><path d="m392 160v304a23.6 23.6 0 0 1 -1.38 8 24 24 0 0 1 -22.62 16h-240a24.006 24.006 0 0 1 -24-24v-256l72-72h192a24.006 24.006 0 0 1 24 24z" fill="#60d1e0"/><g fill="#5ac6d4"><path d="m392 160v91.43l-24 20.57v-48h-48a32 32 0 0 1 -32-32v-56h80a24.006 24.006 0 0 1 24 24z"/><path d="m392 384h-128l-40 24 40 24h128z"/><path d="m392 456v8a23.6 23.6 0 0 1 -1.38 8h-14.62v-16z"/></g><path d="m248 368h216a24 24 0 0 1 24 24 24 24 0 0 1 -24 24h-216a0 0 0 0 1 0 0v-48a0 0 0 0 1 0 0z" fill="#6e3d26"/><path d="m464 392h-216v24h216a24 24 0 0 0 24-24 23.874 23.874 0 0 0 -3.219-12 23.982 23.982 0 0 1 -20.781 12z" fill="#5c2e1a"/><path d="m248 368-40 24 40 24z" fill="#ffb531"/><path d="m488 56v120a32 32 0 0 1 -32 32h-48l-56 48v-48h-48a32 32 0 0 1 -31.82-28.64 30.964 30.964 0 0 1 -.18-3.36v-120a32 32 0 0 1 32-32h152a31.954 31.954 0 0 1 32 32z" fill="#ffb531"/><path d="m488 56v120a32 32 0 0 1 -32 32h-48l-56 48v-48h-48a32 32 0 0 1 -31.82-28.64c80.8-23.4 156.2-66.22 212.77-137.03a32.055 32.055 0 0 1 3.05 13.67z" fill="#ffa912"/><path d="m104 208h48a24 24 0 0 0 24-24v-48z" fill="#9fe4ed"/><path d="m26.663 407.845 10.673-11.92a16.029 16.029 0 0 1 -5.336-11.925v-304a16.019 16.019 0 0 1 16-16h200v-16h-200a32.036 32.036 0 0 0 -32 32v304a32.049 32.049 0 0 0 10.663 23.845z"/><path d="m88 104h160v-16h-160a32.036 32.036 0 0 0 -32 32v304a32.059 32.059 0 0 0 21.332 30.175l5.336-15.084a16.032 16.032 0 0 1 -10.668-15.091v-304a16.019 16.019 0 0 1 16-16z"/><path d="m384 256h16v88h-16z"/><path d="m160 248a24 24 0 1 0 24 24 24.027 24.027 0 0 0 -24-24zm0 32a8 8 0 1 1 8-8 8.009 8.009 0 0 1 -8 8z"/><path d="m200 248h128v16h-128z"/><path d="m200 280h160v16h-160z"/><path d="m160 328a24 24 0 1 0 24 24 24.027 24.027 0 0 0 -24-24zm0 32a8 8 0 1 1 8-8 8.009 8.009 0 0 1 -8 8z"/><path d="m200 328h160v16h-160z"/><path d="m160 408a24 24 0 1 0 24 24 24.027 24.027 0 0 0 -24-24zm0 32a8 8 0 1 1 8-8 8.009 8.009 0 0 1 -8 8z"/><path d="m200 440h144v16h-144z"/><path d="m200 168h48v16h-48z"/><path d="m200 200h48v16h-48z"/><path d="m456 16h-152a40.045 40.045 0 0 0 -40 40v120a40.045 40.045 0 0 0 40 40h40v40a8 8 0 0 0 13.207 6.074l53.752-46.074h45.041a40.045 40.045 0 0 0 40-40v-120a40.045 40.045 0 0 0 -40-40zm24 160a24.027 24.027 0 0 1 -24 24h-48a8 8 0 0 0 -5.207 1.926l-42.793 36.68v-30.606a8 8 0 0 0 -8-8h-48a24.027 24.027 0 0 1 -24-24v-120a24.027 24.027 0 0 1 24-24h152a24.027 24.027 0 0 1 24 24z"/><path d="m379.716 48h-7.432a36.325 36.325 0 0 0 -36.284 36.284v11.716h16v-11.716a20.308 20.308 0 0 1 20.284-20.284h7.432a20.284 20.284 0 0 1 14.343 34.627l-15.432 15.432a36.047 36.047 0 0 0 -10.627 25.657v12.284h16v-12.284a20.152 20.152 0 0 1 5.941-14.343l15.432-15.432a36.284 36.284 0 0 0 -25.657-61.941z"/><path d="m368 168h16v16h-16z"/><path d="m384 256h16v88h-16z"/><path d="m383.091 469.332a16.032 16.032 0 0 1 -15.091 10.668h-240a16.019 16.019 0 0 1 -16-16v-248h40a32.036 32.036 0 0 0 32-32v-40h64v-16h-72a8 8 0 0 0 -5.657 2.343l-72 72a8 8 0 0 0 -2.343 5.657v256a32.036 32.036 0 0 0 32 32h240a32.059 32.059 0 0 0 30.175-21.332zm-231.091-269.332h-28.687l44.687-44.687v28.687a16.019 16.019 0 0 1 -16 16z"/><path d="m464 360h-216a7.954 7.954 0 0 0 -4.112 1.147v-.007l-40 24a8 8 0 0 0 0 13.72l40 24v-.007a7.954 7.954 0 0 0 4.112 1.147h200v8a8.009 8.009 0 0 1 -8 8h-80v16h80a24.027 24.027 0 0 0 24-24v-8a32 32 0 0 0 0-64zm-224 22.13v19.74l-16.451-9.87zm16-6.13h72v32h-72zm88 32v-32h104v32zm120 0v-32a16 16 0 0 1 0 32z"/></g></svg>